# xmcd
#
# Track frame offsets:
# 150
# 16922
# 33409
# 56490
# 74897
# 91282
# 117059
# 138723
# 149393
# 158746
#
# Disc length: 2274 seconds
#
#
# Revision: 0
# Processed by: cddbd v1.5.1PL2 Copyright (c) Steve Scherf et al.
# Submitted via: FreeRIP 2.944 
#
DISCID=8c08e00a
DTITLE=Len Mink - Len Mink
DYEAR=1977
DGENRE=Gospel
TTITLE0=Hosanna
TTITLE1=This Is The Refreshing
TTITLE2=I Have Returned
TTITLE3=I Just Came To Sit In Your Presence
TTITLE4=One Of These Days
TTITLE5=I Will Sing Unto The Lord
TTITLE6=A Brand New Tongue
TTITLE7=The Preacher's On Fire
TTITLE8=More Like You
TTITLE9=May I Introduce You To A Friend
EXTD=
EXTT0=
EXTT1=
EXTT2=
EXTT3=
EXTT4=
EXTT5=
EXTT6=
EXTT7=
EXTT8=
EXTT9=
PLAYORDER=
